<?xml version="1.0" encoding="UTF-8"?>
<!DOCTYPE svg PUBLIC "-//W3C//DTD SVG 1.1//EN" "http://www.w3.org/Graphics/SVG/1.1/DTD/svg11.dtd">
<svg xmlns="http://www.w3.org/2000/svg" version="1.1" width="140px" height="165px" style="shape-rendering:geometricPrecision; text-rendering:geometricPrecision; image-rendering:optimizeQuality; fill-rule:evenodd; clip-rule:evenodd" xmlns:xlink="http://www.w3.org/1999/xlink">
<g><path style="opacity:0.998" fill="#97603b" d="M 64.5,-0.5 C 68.5,-0.5 72.5,-0.5 76.5,-0.5C 78.6074,0.468218 80.9407,0.801552 83.5,0.5C 83.6107,1.11742 83.944,1.61742 84.5,2C 88.84,3.28227 93.1734,4.44894 97.5,5.5C 115.588,15.2724 126.922,30.2724 131.5,50.5C 125.185,48.8943 118.851,47.3943 112.5,46C 108.225,31.8614 98.8915,26.5281 84.5,30C 80.22,31.9466 76.8867,34.9466 74.5,39C 71.1667,39.6667 67.8333,39.6667 64.5,39C 58.4708,29.7389 50.1374,26.7389 39.5,30C 32.1744,33.1744 28.1744,38.6744 27.5,46.5C 20.2212,47.0699 13.2212,48.7366 6.5,51.5C 11.5429,32.8921 21.8762,18.0587 37.5,7C 39.6504,5.58859 41.9837,4.75526 44.5,4.5C 51.2599,2.81925 57.9265,1.15258 64.5,-0.5 Z"/></g>
<g><path style="opacity:0.4" fill="#b89680" d="M 57.5,-0.5 C 59.8333,-0.5 62.1667,-0.5 64.5,-0.5C 57.9265,1.15258 51.2599,2.81925 44.5,4.5C 48.5573,2.07098 52.8907,0.404318 57.5,-0.5 Z"/></g>
<g><path style="opacity:0.576" fill="#b89278" d="M 83.5,0.5 C 88.6437,1.08286 93.3104,2.74953 97.5,5.5C 93.1734,4.44894 88.84,3.28227 84.5,2C 83.944,1.61742 83.6107,1.11742 83.5,0.5 Z"/></g>
<g><path style="opacity:1" fill="#673715" d="M 38.5,13.5 C 43.449,12.9589 48.1156,13.7922 52.5,16C 54.2446,17.692 54.5779,19.5253 53.5,21.5C 50.322,16.9104 45.9887,15.0771 40.5,16C 36.6599,18.6744 33.3266,21.8411 30.5,25.5C 29.432,23.8125 29.5986,22.1459 31,20.5C 33.3959,17.9334 35.8959,15.6 38.5,13.5 Z"/></g>
<g><path style="opacity:1" fill="#6a3917" d="M 93.5,12.5 C 102.169,13.2054 107.669,17.5387 110,25.5C 109.586,25.9574 109.086,26.2907 108.5,26.5C 106.241,20.1162 101.741,16.4495 95,15.5C 91.2058,16.4524 88.0391,18.4524 85.5,21.5C 84.4173,20.635 84.2506,19.635 85,18.5C 87.2342,15.399 90.0675,13.399 93.5,12.5 Z"/></g>
<g><path style="opacity:1" fill="#dbb340" d="M 131.5,50.5 C 134.2,51.5437 134.867,53.2104 133.5,55.5C 126.288,53.5306 118.954,52.1973 111.5,51.5C 110.302,61.0318 104.969,66.6985 95.5,68.5C 94.3263,67.4863 93.6596,66.153 93.5,64.5C 100.546,63.9538 105.046,60.2871 107,53.5C 107.498,50.5184 107.665,47.5184 107.5,44.5C 106.737,42.6316 105.737,40.9649 104.5,39.5C 103.833,38.1667 102.833,37.1667 101.5,36.5C 97.679,32.8185 93.3457,31.8185 88.5,33.5C 81.2732,35.3939 77.2732,40.0606 76.5,47.5C 75.0048,47.0113 73.6715,46.3446 72.5,45.5C 69.8518,42.7376 67.5185,43.0709 65.5,46.5C 64.391,46.5569 63.391,46.8902 62.5,47.5C 62.7678,45.901 62.4345,44.5676 61.5,43.5C 61.3404,41.847 60.6737,40.5137 59.5,39.5C 58.8333,38.1667 57.8333,37.1667 56.5,36.5C 52.679,32.8185 48.3457,31.8185 43.5,33.5C 35.3567,35.6522 31.3567,40.9856 31.5,49.5C 31.7516,53.3267 33.0849,56.6601 35.5,59.5C 35.9731,60.9063 36.9731,61.573 38.5,61.5C 39.6594,63.2503 41.326,64.2503 43.5,64.5C 44.1667,64.5 44.8333,64.5 45.5,64.5C 45.7709,66.3797 45.1042,67.713 43.5,68.5C 34.3315,66.5292 28.9982,60.8626 27.5,51.5C 20.0541,52.1946 12.7208,53.5279 5.5,55.5C 4.87605,55.0831 4.54272,54.4164 4.5,53.5C 4.74716,52.2867 5.41383,51.62 6.5,51.5C 13.2212,48.7366 20.2212,47.0699 27.5,46.5C 28.1744,38.6744 32.1744,33.1744 39.5,30C 50.1374,26.7389 58.4708,29.7389 64.5,39C 67.8333,39.6667 71.1667,39.6667 74.5,39C 76.8867,34.9466 80.22,31.9466 84.5,30C 98.8915,26.5281 108.225,31.8614 112.5,46C 118.851,47.3943 125.185,48.8943 131.5,50.5 Z"/></g>
<g><path style="opacity:1" fill="#3d7b54" d="M 107.5,44.5 C 107.665,47.5184 107.498,50.5184 107,53.5C 105.046,60.2871 100.546,63.9538 93.5,64.5C 92.1667,63.8333 91.1667,62.8333 90.5,61.5C 95.7792,55.5541 101.446,49.8875 107.5,44.5 Z"/></g>
<g><path style="opacity:1" fill="#80a588" d="M 88.5,33.5 C 93.3457,31.8185 97.679,32.8185 101.5,36.5C 96.204,43.1313 90.5374,49.4646 84.5,55.5C 82.4832,54.4706 80.4832,53.4706 78.5,52.5C 78.5674,51.0413 78.2341,49.7079 77.5,48.5C 78.8333,47.5 80.1667,46.5 81.5,45.5C 88.0381,48.8121 90.8714,46.8121 90,39.5C 89.0053,38.9341 88.172,38.2674 87.5,37.5C 89.5441,36.9688 91.2107,35.8022 92.5,34C 91.2068,33.51 89.8734,33.3433 88.5,33.5 Z"/></g>
<g><path style="opacity:1" fill="#454341" d="M 72.5,45.5 C 73.6715,46.3446 75.0048,47.0113 76.5,47.5C 76.5,48.1667 76.8333,48.5 77.5,48.5C 78.2341,49.7079 78.5674,51.0413 78.5,52.5C 77.5223,55.4778 75.5223,57.4778 72.5,58.5C 71.1667,58.5 69.8333,58.5 68.5,58.5C 64.2798,58.5729 61.9464,56.5729 61.5,52.5C 61.366,50.7085 61.6993,49.0418 62.5,47.5C 63.391,46.8902 64.391,46.5569 65.5,46.5C 67.7638,45.7814 70.0971,45.448 72.5,45.5 Z"/></g>
<g><path style="opacity:1" fill="#81a587" d="M 43.5,33.5 C 48.3457,31.8185 52.679,32.8185 56.5,36.5C 49.1311,43.8671 42.1311,51.5338 35.5,59.5C 33.0849,56.6601 31.7516,53.3267 31.5,49.5C 33.1667,48.1667 34.8333,46.8333 36.5,45.5C 43.258,49.251 46.0913,47.251 45,39.5C 43.6976,38.9152 42.531,38.2485 41.5,37.5C 43.5441,36.9688 45.2107,35.8022 46.5,34C 45.552,33.5172 44.552,33.3505 43.5,33.5 Z"/></g>
<g><path style="opacity:1" fill="#885b3a" d="M 72.5,45.5 C 70.0971,45.448 67.7638,45.7814 65.5,46.5C 67.5185,43.0709 69.8518,42.7376 72.5,45.5 Z"/></g>
<g><path style="opacity:1" fill="#3f7c56" d="M 56.5,36.5 C 57.8333,37.1667 58.8333,38.1667 59.5,39.5C 53.2235,47.445 46.2235,54.7784 38.5,61.5C 36.9731,61.573 35.9731,60.9063 35.5,59.5C 42.1311,51.5338 49.1311,43.8671 56.5,36.5 Z"/></g>
<g><path style="opacity:1" fill="#468056" d="M 43.5,33.5 C 44.552,33.3505 45.552,33.5172 46.5,34C 45.2107,35.8022 43.5441,36.9688 41.5,37.5C 37.0061,38.1587 35.3395,40.8254 36.5,45.5C 34.8333,46.8333 33.1667,48.1667 31.5,49.5C 31.3567,40.9856 35.3567,35.6522 43.5,33.5 Z"/></g>
<g><path style="opacity:1" fill="#7ea487" d="M 104.5,39.5 C 105.737,40.9649 106.737,42.6316 107.5,44.5C 101.446,49.8875 95.7792,55.5541 90.5,61.5C 88.8333,60.5 87.5,59.1667 86.5,57.5C 93.5,52.5 99.5,46.5 104.5,39.5 Z"/></g>
<g><path style="opacity:1" fill="#7fa587" d="M 59.5,39.5 C 60.6737,40.5137 61.3404,41.847 61.5,43.5C 55.5,50.5 49.5,57.5 43.5,64.5C 41.326,64.2503 39.6594,63.2503 38.5,61.5C 46.2235,54.7784 53.2235,47.445 59.5,39.5 Z"/></g>
<g><path style="opacity:1" fill="#3d7b55" d="M 101.5,36.5 C 102.833,37.1667 103.833,38.1667 104.5,39.5C 99.5,46.5 93.5,52.5 86.5,57.5C 85.5,57.1667 84.8333,56.5 84.5,55.5C 90.5374,49.4646 96.204,43.1313 101.5,36.5 Z"/></g>
<g><path style="opacity:1" fill="#f4f7f5" d="M 87.5,37.5 C 88.172,38.2674 89.0053,38.9341 90,39.5C 90.8714,46.8121 88.0381,48.8121 81.5,45.5C 80.1845,40.164 82.1845,37.4974 87.5,37.5 Z"/></g>
<g><path style="opacity:1" fill="#f6f8f6" d="M 41.5,37.5 C 42.531,38.2485 43.6976,38.9152 45,39.5C 46.0913,47.251 43.258,49.251 36.5,45.5C 35.3395,40.8254 37.0061,38.1587 41.5,37.5 Z"/></g>
<g><path style="opacity:1" fill="#3d7b51" d="M 88.5,33.5 C 89.8734,33.3433 91.2068,33.51 92.5,34C 91.2107,35.8022 89.5441,36.9688 87.5,37.5C 82.1845,37.4974 80.1845,40.164 81.5,45.5C 80.1667,46.5 78.8333,47.5 77.5,48.5C 76.8333,48.5 76.5,48.1667 76.5,47.5C 77.2732,40.0606 81.2732,35.3939 88.5,33.5 Z"/></g>
<g><path style="opacity:0.997" fill="#965f39" d="M 43.5,68.5 C 43.6716,69.4916 43.3382,70.1583 42.5,70.5C 33.9548,68.1526 25.4548,65.4859 17,62.5C 16.5,62.8333 16,63.1667 15.5,63.5C 24.0435,67.4538 32.7102,70.7872 41.5,73.5C 40.5592,75.0495 39.8925,76.7162 39.5,78.5C 30.4754,78.1685 21.4754,78.5018 12.5,79.5C 21.1411,80.498 29.8078,80.8314 38.5,80.5C 37.8505,82.4352 37.5172,84.4352 37.5,86.5C 31.923,88.5688 26.2563,90.4022 20.5,92C 18.275,92.8759 16.275,94.0426 14.5,95.5C 15,95.8333 15.5,96.1667 16,96.5C 22.8887,94.2387 29.7221,91.9053 36.5,89.5C 36.902,110.9 47.902,121.567 69.5,121.5C 78.7287,121.88 87.062,119.38 94.5,114C 101.011,107.133 103.677,98.9664 102.5,89.5C 108.515,91.561 114.515,93.7277 120.5,96C 121.944,96.7805 123.277,96.6139 124.5,95.5C 117.618,91.6121 110.284,88.9454 102.5,87.5C 102.737,86.209 102.404,85.209 101.5,84.5C 101.5,83.1667 101.5,81.8333 101.5,80.5C 109.86,80.8312 118.193,80.4979 126.5,79.5C 117.525,78.5018 108.525,78.1685 99.5,78.5C 99.634,76.7085 99.3007,75.0418 98.5,73.5C 106.856,70.4982 115.189,67.1649 123.5,63.5C 122.277,62.3861 120.944,62.2195 119.5,63C 111.981,66.0064 104.314,68.5064 96.5,70.5C 96.1667,69.8333 95.8333,69.1667 95.5,68.5C 104.969,66.6985 110.302,61.0318 111.5,51.5C 118.954,52.1973 126.288,53.5306 133.5,55.5C 134.829,61.8095 136.162,68.1428 137.5,74.5C 136.861,75.0968 136.528,75.9302 136.5,77C 137.57,86.6418 138.57,96.1418 139.5,105.5C 139.5,120.5 139.5,135.5 139.5,150.5C 138.216,154.985 137.216,159.651 136.5,164.5C 92.5,164.5 48.5,164.5 4.5,164.5C 2.18795,158.247 0.521288,151.914 -0.5,145.5C -0.5,130.833 -0.5,116.167 -0.5,101.5C 0.441503,97.8555 1.10817,94.0222 1.5,90C 1.48572,88.6153 1.15239,87.4486 0.5,86.5C 0.507945,83.4552 0.841278,80.4552 1.5,77.5C 2.7479,76.6661 3.41456,75.3328 3.5,73.5C 4.05313,70.1833 4.38646,66.85 4.5,63.5C 4.5751,60.7938 4.90843,58.1272 5.5,55.5C 12.7208,53.5279 20.0541,52.1946 27.5,51.5C 28.9982,60.8626 34.3315,66.5292 43.5,68.5 Z"/></g>
<g><path style="opacity:1" fill="#e7cfbb" d="M 61.5,52.5 C 61.9464,56.5729 64.2798,58.5729 68.5,58.5C 68.5,67.1667 68.5,75.8333 68.5,84.5C 65.7374,84.7438 63.5707,86.0771 62,88.5C 56.6575,97.0853 57.4909,104.919 64.5,112C 75.3244,114.268 80.6577,109.935 80.5,99C 80.7362,91.6224 77.4029,86.789 70.5,84.5C 69.9085,75.566 70.5751,66.8993 72.5,58.5C 75.5223,57.4778 77.5223,55.4778 78.5,52.5C 80.4832,53.4706 82.4832,54.4706 84.5,55.5C 84.8333,56.5 85.5,57.1667 86.5,57.5C 87.5,59.1667 88.8333,60.5 90.5,61.5C 91.1667,62.8333 92.1667,63.8333 93.5,64.5C 93.6596,66.153 94.3263,67.4863 95.5,68.5C 95.8333,69.1667 96.1667,69.8333 96.5,70.5C 93.9599,72.666 94.6266,73.666 98.5,73.5C 99.3007,75.0418 99.634,76.7085 99.5,78.5C 98.0222,78.238 96.6888,78.5713 95.5,79.5C 97.396,80.4656 99.396,80.7989 101.5,80.5C 101.5,81.8333 101.5,83.1667 101.5,84.5C 101.631,85.3764 101.298,86.0431 100.5,86.5C 98.4523,85.23 96.4523,84.8967 94.5,85.5C 96.9909,87.4123 99.6575,88.7456 102.5,89.5C 103.677,98.9664 101.011,107.133 94.5,114C 87.062,119.38 78.7287,121.88 69.5,121.5C 47.902,121.567 36.902,110.9 36.5,89.5C 39.0942,88.17 41.7608,86.8366 44.5,85.5C 44,85.1667 43.5,84.8333 43,84.5C 41.1997,85.3195 39.3664,85.9862 37.5,86.5C 37.5172,84.4352 37.8505,82.4352 38.5,80.5C 40.288,80.7852 41.9547,80.4519 43.5,79.5C 42.3112,78.5713 40.9778,78.238 39.5,78.5C 39.8925,76.7162 40.5592,75.0495 41.5,73.5C 46.4525,73.8098 46.7858,72.8098 42.5,70.5C 43.3382,70.1583 43.6716,69.4916 43.5,68.5C 45.1042,67.713 45.7709,66.3797 45.5,64.5C 48.9173,61.5869 52.2506,58.4202 55.5,55C 57.2166,53.4412 59.2166,52.6079 61.5,52.5 Z"/></g>
<g><path style="opacity:1" fill="#c2a48c" d="M 68.5,58.5 C 69.8333,58.5 71.1667,58.5 72.5,58.5C 70.5751,66.8993 69.9085,75.566 70.5,84.5C 69.8333,84.5 69.1667,84.5 68.5,84.5C 68.5,75.8333 68.5,67.1667 68.5,58.5 Z"/></g>
<g><path style="opacity:1" fill="#407c56" d="M 61.5,43.5 C 62.4345,44.5676 62.7678,45.901 62.5,47.5C 61.6993,49.0418 61.366,50.7085 61.5,52.5C 59.2166,52.6079 57.2166,53.4412 55.5,55C 52.2506,58.4202 48.9173,61.5869 45.5,64.5C 44.8333,64.5 44.1667,64.5 43.5,64.5C 49.5,57.5 55.5,50.5 61.5,43.5 Z"/></g>
<g><path style="opacity:1" fill="#9c948f" d="M 98.5,73.5 C 94.6266,73.666 93.9599,72.666 96.5,70.5C 104.314,68.5064 111.981,66.0064 119.5,63C 120.944,62.2195 122.277,62.3861 123.5,63.5C 115.189,67.1649 106.856,70.4982 98.5,73.5 Z"/></g>
<g><path style="opacity:1" fill="#9d9692" d="M 42.5,70.5 C 46.7858,72.8098 46.4525,73.8098 41.5,73.5C 32.7102,70.7872 24.0435,67.4538 15.5,63.5C 16,63.1667 16.5,62.8333 17,62.5C 25.4548,65.4859 33.9548,68.1526 42.5,70.5 Z"/></g>
<g><path style="opacity:0.796" fill="#bc9a80" d="M 4.5,63.5 C 4.38646,66.85 4.05313,70.1833 3.5,73.5C 3.41456,75.3328 2.7479,76.6661 1.5,77.5C 1.85561,72.5687 2.85561,67.902 4.5,63.5 Z"/></g>
<g><path style="opacity:1" fill="#9d9a9a" d="M 39.5,78.5 C 40.9778,78.238 42.3112,78.5713 43.5,79.5C 41.9547,80.4519 40.288,80.7852 38.5,80.5C 29.8078,80.8314 21.1411,80.498 12.5,79.5C 21.4754,78.5018 30.4754,78.1685 39.5,78.5 Z"/></g>
<g><path style="opacity:1" fill="#9e9b9a" d="M 99.5,78.5 C 108.525,78.1685 117.525,78.5018 126.5,79.5C 118.193,80.4979 109.86,80.8312 101.5,80.5C 99.396,80.7989 97.396,80.4656 95.5,79.5C 96.6888,78.5713 98.0222,78.238 99.5,78.5 Z"/></g>
<g><path style="opacity:1" fill="#c6321a" d="M 68.5,84.5 C 69.1667,84.5 69.8333,84.5 70.5,84.5C 77.4029,86.789 80.7362,91.6224 80.5,99C 80.6577,109.935 75.3244,114.268 64.5,112C 57.4909,104.919 56.6575,97.0853 62,88.5C 63.5707,86.0771 65.7374,84.7438 68.5,84.5 Z"/></g>
<g><path style="opacity:0.016" fill="#c9af9c" d="M 137.5,74.5 C 137.808,78.3597 138.475,82.0264 139.5,85.5C 139.5,92.1667 139.5,98.8333 139.5,105.5C 138.57,96.1418 137.57,86.6418 136.5,77C 136.528,75.9302 136.861,75.0968 137.5,74.5 Z"/></g>
<g><path style="opacity:1" fill="#9c928c" d="M 36.5,89.5 C 29.7221,91.9053 22.8887,94.2387 16,96.5C 15.5,96.1667 15,95.8333 14.5,95.5C 16.275,94.0426 18.275,92.8759 20.5,92C 26.2563,90.4022 31.923,88.5688 37.5,86.5C 39.3664,85.9862 41.1997,85.3195 43,84.5C 43.5,84.8333 44,85.1667 44.5,85.5C 41.7608,86.8366 39.0942,88.17 36.5,89.5 Z"/></g>
<g><path style="opacity:1" fill="#9c918b" d="M 101.5,84.5 C 102.404,85.209 102.737,86.209 102.5,87.5C 110.284,88.9454 117.618,91.6121 124.5,95.5C 123.277,96.6139 121.944,96.7805 120.5,96C 114.515,93.7277 108.515,91.561 102.5,89.5C 99.6575,88.7456 96.9909,87.4123 94.5,85.5C 96.4523,84.8967 98.4523,85.23 100.5,86.5C 101.298,86.0431 101.631,85.3764 101.5,84.5 Z"/></g>
<g><path style="opacity:0.151" fill="#d1beb2" d="M 0.5,86.5 C 1.15239,87.4486 1.48572,88.6153 1.5,90C 1.10817,94.0222 0.441503,97.8555 -0.5,101.5C -0.5,97.1667 -0.5,92.8333 -0.5,88.5C 0.338246,88.1583 0.67158,87.4916 0.5,86.5 Z"/></g>
</svg>
